<svg id="svg" version="1.1" xmlns="http://www.w3.org/2000/svg" xmlns:xlink="http://www.w3.org/1999/xlink" width="400" height="400" viewBox="0, 0, 400,400"><g id="svgg"><path id="path0" d="M284.793 250.125 C 282.953 252.016,278.954 255.803,278.414 256.167 C 278.210 256.304,277.377 257.024,276.563 257.767 C 274.915 259.270,274.195 259.886,273.333 260.530 C 273.012 260.770,272.600 261.106,272.417 261.277 C 271.427 262.202,263.624 268.167,263.404 268.167 C 263.361 268.167,262.221 268.907,260.871 269.812 C 257.459 272.100,251.414 275.475,249.360 276.239 C 249.024 276.364,247.700 276.912,246.417 277.457 C 243.764 278.584,240.034 279.935,238.968 280.154 C 238.573 280.236,237.838 280.422,237.333 280.568 C 222.409 284.894,204.003 285.093,188.833 281.092 C 187.596 280.765,186.246 280.416,185.833 280.316 C 184.005 279.873,180.604 278.652,176.757 277.057 C 174.470 276.109,172.552 275.333,172.495 275.333 C 172.353 275.333,170.579 276.931,168.583 278.856 C 167.667 279.740,165.042 282.241,162.750 284.413 C 160.458 286.586,157.646 289.253,156.500 290.342 C 155.354 291.430,153.554 293.139,152.500 294.139 C 145.240 301.026,141.921 304.184,140.833 305.238 C 140.146 305.904,139.021 306.961,138.333 307.588 C 137.646 308.214,137.028 308.817,136.960 308.929 C 136.829 309.144,139.076 310.620,142.335 312.459 C 143.296 313.002,144.571 313.729,145.167 314.074 C 146.149 314.644,147.329 315.228,151.917 317.420 C 154.170 318.496,157.663 320.000,157.910 320.000 C 158.030 320.000,158.980 320.345,160.022 320.767 C 162.446 321.747,168.424 323.752,169.833 324.056 C 170.429 324.185,172.409 324.681,174.232 325.159 C 192.010 329.813,212.437 330.696,235.750 327.817 C 238.501 327.478,244.144 326.339,248.052 325.335 C 250.178 324.789,252.254 324.257,252.667 324.153 C 255.281 323.492,258.055 322.589,261.333 321.329 C 262.571 320.854,264.071 320.293,264.667 320.084 C 266.160 319.558,268.472 318.536,271.333 317.136 C 272.662 316.486,274.087 315.791,274.500 315.592 C 275.526 315.096,279.525 312.844,279.833 312.588 C 279.971 312.474,280.551 312.147,281.123 311.860 C 282.297 311.273,286.151 308.780,289.466 306.465 C 290.684 305.613,292.389 304.429,293.254 303.833 C 294.118 303.237,295.180 302.450,295.613 302.083 C 296.046 301.717,296.929 301.020,297.575 300.535 C 298.863 299.569,303.159 296.101,304.238 295.156 C 304.611 294.829,305.779 293.825,306.833 292.923 C 309.303 290.812,313.540 286.955,315.262 285.250 C 316.002 284.517,317.034 283.542,317.554 283.085 C 318.761 282.023,318.752 281.957,317.208 280.457 C 316.498 279.767,314.942 278.171,313.750 276.911 C 311.487 274.517,309.304 272.232,305.797 268.583 C 304.651 267.392,302.897 265.557,301.899 264.506 C 300.900 263.455,299.143 261.618,297.993 260.423 C 296.844 259.228,295.006 257.314,293.910 256.169 C 292.814 255.025,291.085 253.225,290.069 252.169 C 289.052 251.114,287.861 249.856,287.421 249.375 C 286.421 248.281,286.652 248.215,284.793 250.125 " 
stroke="none" fill="#5c81e8" fill-rule="evenodd"></path><path id="path1" d="M206.250 70.612 C 200.662 70.884,195.640 71.386,188.833 72.351 C 177.356 73.980,157.716 80.632,148.364 86.058 C 147.659 86.466,146.075 87.342,144.842 88.003 C 143.610 88.664,142.035 89.565,141.342 90.005 C 140.650 90.444,139.558 91.120,138.917 91.506 C 137.928 92.101,136.343 93.154,131.797 96.234 C 130.485 97.124,128.593 98.553,127.654 99.364 C 127.142 99.805,126.670 100.167,126.603 100.167 C 125.787 100.167,114.691 110.579,111.240 114.583 C 110.608 115.317,109.838 116.179,109.528 116.500 C 109.218 116.821,108.444 117.758,107.809 118.583 C 107.173 119.408,106.277 120.533,105.817 121.083 C 105.357 121.633,104.646 122.571,104.238 123.167 C 103.830 123.763,102.749 125.300,101.836 126.583 C 100.923 127.867,100.174 128.971,100.171 129.036 C 100.167 129.152,99.414 130.361,97.910 132.667 C 97.522 133.262,96.884 134.350,96.494 135.083 C 93.413 140.867,92.437 142.757,92.173 143.451 C 92.006 143.890,91.443 145.188,90.923 146.333 C 79.666 171.112,77.355 203.302,84.521 235.500 C 85.735 240.954,89.576 252.189,91.592 256.181 C 91.804 256.601,92.127 257.371,92.310 257.891 C 92.493 258.411,93.184 259.867,93.845 261.127 C 94.507 262.386,95.494 264.269,96.039 265.310 C 96.584 266.352,97.736 268.331,98.598 269.708 C 99.461 271.085,100.167 272.242,100.167 272.280 C 100.167 272.412,101.897 274.931,103.027 276.443 C 103.654 277.282,104.171 278.032,104.176 278.109 C 104.181 278.187,104.462 278.602,104.801 279.032 C 105.140 279.461,106.017 280.578,106.750 281.513 C 109.823 285.429,113.649 289.696,117.523 293.525 C 121.140 297.100,127.215 302.376,127.618 302.292 C 127.729 302.269,129.304 300.838,131.118 299.111 C 132.932 297.385,135.385 295.060,136.568 293.945 C 139.111 291.548,141.976 288.820,144.746 286.158 C 145.848 285.099,148.250 282.815,150.083 281.083 C 159.944 271.767,162.333 269.477,162.333 269.345 C 162.333 269.293,161.789 268.896,161.125 268.464 C 153.806 263.699,143.384 252.622,139.756 245.750 C 139.417 245.108,139.044 244.471,138.926 244.333 C 138.623 243.978,136.000 239.229,136.000 239.035 C 136.000 238.947,135.654 238.134,135.232 237.229 C 134.181 234.978,132.791 231.643,132.359 230.333 C 130.075 223.407,128.344 215.546,127.993 210.500 C 127.513 203.590,127.466 202.259,127.548 197.833 C 127.753 186.730,128.771 180.758,132.276 170.083 C 132.802 168.481,133.735 166.342,136.347 160.750 C 137.051 159.243,141.159 152.520,141.796 151.834 C 141.954 151.663,142.533 150.878,143.083 150.090 C 146.023 145.874,152.305 139.223,157.142 135.204 C 158.210 134.317,159.457 133.263,159.914 132.860 C 160.371 132.458,160.896 132.070,161.081 131.999 C 161.266 131.928,162.087 131.368,162.907 130.755 C 164.765 129.366,166.037 128.546,168.583 127.094 C 169.683 126.466,171.071 125.669,171.667 125.322 C 172.262 124.975,173.088 124.543,173.500 124.361 C 173.912 124.180,174.925 123.731,175.750 123.365 C 193.809 115.341,214.909 113.815,234.573 119.111 C 236.137 119.532,237.717 119.936,238.083 120.010 C 239.736 120.340,248.600 123.798,251.527 125.254 C 256.062 127.512,258.597 128.913,261.167 130.585 C 262.037 131.152,262.987 131.738,263.277 131.888 C 263.781 132.148,264.514 132.654,267.978 135.133 C 270.555 136.977,273.238 139.096,275.510 141.083 C 276.244 141.725,277.536 142.850,278.380 143.583 C 279.225 144.317,281.401 146.405,283.214 148.224 C 286.133 151.150,286.545 151.506,286.798 151.316 C 286.955 151.197,287.610 150.572,288.254 149.925 C 288.898 149.279,290.548 147.700,291.919 146.417 C 293.291 145.133,295.352 143.183,296.498 142.082 C 299.374 139.322,303.368 135.525,308.332 130.833 C 309.932 129.321,312.743 126.655,314.579 124.910 C 316.415 123.165,318.314 121.365,318.800 120.910 L 319.684 120.083 318.905 119.167 C 315.671 115.363,310.502 110.182,305.333 105.562 C 303.778 104.172,299.412 100.599,298.516 99.983 C 298.003 99.631,297.058 98.919,296.417 98.402 C 295.775 97.885,294.500 96.959,293.583 96.344 C 292.667 95.729,291.204 94.736,290.333 94.137 C 289.462 93.538,287.887 92.537,286.833 91.912 C 285.779 91.287,284.401 90.442,283.770 90.035 C 283.140 89.627,281.940 88.941,281.104 88.509 C 280.267 88.077,278.383 87.082,276.917 86.296 C 275.450 85.511,273.837 84.704,273.333 84.503 C 272.829 84.302,272.280 84.066,272.114 83.977 C 271.281 83.535,266.104 81.243,264.849 80.762 C 259.183 78.586,254.115 76.838,251.274 76.079 C 243.046 73.881,237.027 72.509,234.417 72.239 C 233.867 72.182,232.065 71.957,230.414 71.740 C 222.558 70.706,213.241 70.271,206.250 70.612 " 
stroke="none" fill="#44444c" fill-rule="evenodd"></path></g></svg>