<svg id="svg" version="1.1" xmlns="http://www.w3.org/2000/svg" xmlns:xlink="http://www.w3.org/1999/xlink" width="400" height="442.63565891472865" viewBox="0, 0, 400,442.63565891472865"><g id="svgg"><path id="path0" d="M208.527 0.412 C 183.498 2.388,158.760 8.335,132.833 18.609 C 124.191 22.034,122.641 22.901,128.977 20.768 C 179.220 3.848,235.555 19.199,291.085 64.942 C 299.439 71.823,315.116 86.085,315.116 86.803 C 315.116 86.967,302.730 105.134,287.591 127.174 L 260.066 167.248 262.300 167.543 C 266.913 168.151,341.172 172.548,341.469 172.230 C 341.726 171.956,393.025 97.163,398.440 89.168 L 400.132 86.669 392.199 78.897 C 333.820 21.704,272.220 -4.618,208.527 0.412 M175.042 100.775 C 117.495 107.980,83.192 213.145,112.245 293.294 C 125.739 330.522,150.311 357.893,185.425 374.811 C 253.665 407.689,321.090 403.880,382.752 363.663 C 389.152 359.489,397.655 353.378,397.556 353.023 C 397.416 352.519,340.894 270.588,340.671 270.565 C 340.549 270.553,339.448 272.018,338.223 273.820 C 294.371 338.378,241.236 352.193,200.258 309.691 C 166.805 274.993,154.826 213.040,172.481 166.038 C 180.208 145.467,194.464 126.398,211.132 114.341 C 214.092 112.200,214.092 112.334,211.143 110.437 C 199.859 103.173,185.844 99.423,175.042 100.775 " stroke="none" fill="#389cf4" fill-rule="evenodd"></path><path id="path1" d="M160.659 14.576 C 146.625 16.000,136.986 18.091,125.969 22.102 C 123.517 22.994,121.206 23.744,120.833 23.767 C 120.460 23.790,120.155 23.957,120.155 24.137 C 120.155 24.317,119.996 24.366,119.801 24.245 C 119.606 24.125,119.385 24.209,119.310 24.433 C 119.236 24.657,118.785 24.870,118.308 24.906 C 117.832 24.942,117.442 25.079,117.442 25.212 C 117.442 25.344,117.218 25.452,116.945 25.452 C 116.147 25.452,109.498 28.713,104.457 31.577 C 65.418 53.754,33.242 95.254,12.488 150.194 C -34.127 273.593,56.898 424.615,187.791 441.039 C 257.468 449.783,327.253 421.331,394.314 356.838 C 397.973 353.319,397.938 353.337,389.185 359.496 C 325.772 404.115,254.457 409.158,183.527 374.038 C 131.125 348.092,101.808 296.813,101.756 231.008 C 101.689 147.944,147.802 85.862,196.736 103.133 C 203.298 105.450,210.421 109.223,214.124 112.345 C 215.046 113.123,217.206 114.854,218.924 116.191 C 231.058 125.640,246.180 144.120,256.977 162.695 C 258.362 165.079,259.659 166.981,259.858 166.921 C 260.058 166.862,272.567 148.835,287.658 126.862 L 315.096 86.912 311.133 83.046 C 271.539 44.421,228.151 20.784,186.735 15.275 C 182.570 14.721,164.109 14.226,160.659 14.576 M257.364 274.885 C 248.605 294.319,236.829 309.729,222.336 320.724 C 219.111 323.171,217.947 324.261,218.301 324.502 C 220.079 325.712,227.645 329.237,230.889 330.366 C 264.149 341.944,299.412 325.295,331.373 282.925 C 335.208 277.840,338.908 272.615,340.071 270.640 C 340.298 270.253,332.164 270.155,299.926 270.155 L 259.496 270.156 257.364 274.885 " stroke="none" fill="#1c2c43" fill-rule="evenodd"></path><path id="path2" d="M313.178 85.078 C 313.901 85.824,314.580 86.434,314.687 86.434 C 314.794 86.434,314.289 85.824,313.566 85.078 C 312.843 84.331,312.164 83.721,312.057 83.721 C 311.951 83.721,312.455 84.331,313.178 85.078 M139.911 118.895 L 137.403 121.512 140.019 119.003 C 141.458 117.624,142.636 116.447,142.636 116.387 C 142.636 116.102,142.241 116.465,139.911 118.895 M101.640 241.085 C 101.640 241.831,101.720 242.137,101.818 241.764 C 101.915 241.391,101.915 240.780,101.818 240.407 C 101.720 240.034,101.640 240.339,101.640 241.085 M271.600 397.179 C 272.288 397.265,273.509 397.266,274.313 397.182 C 275.117 397.098,274.554 397.028,273.062 397.026 C 271.570 397.025,270.912 397.093,271.600 397.179 M278.973 397.180 C 279.666 397.266,280.799 397.266,281.492 397.180 C 282.185 397.094,281.618 397.023,280.233 397.023 C 278.847 397.023,278.280 397.094,278.973 397.180 " stroke="none" fill="#245484" fill-rule="evenodd"></path><path id="path3" d="M167.345 14.241 C 168.891 14.315,171.420 14.315,172.965 14.241 C 174.511 14.168,173.246 14.108,170.155 14.108 C 167.064 14.108,165.799 14.168,167.345 14.241 M310.465 82.364 C 311.188 83.110,311.867 83.721,311.974 83.721 C 312.080 83.721,311.576 83.110,310.853 82.364 C 310.130 81.618,309.451 81.008,309.344 81.008 C 309.237 81.008,309.742 81.618,310.465 82.364 M183.043 100.655 C 183.416 100.752,184.026 100.752,184.399 100.655 C 184.772 100.557,184.467 100.478,183.721 100.478 C 182.975 100.478,182.670 100.557,183.043 100.655 M143.580 115.601 L 142.442 116.860 143.702 115.722 C 144.876 114.661,145.139 114.341,144.840 114.341 C 144.773 114.341,144.206 114.908,143.580 115.601 M136.604 122.578 L 135.465 123.837 136.725 122.699 C 137.418 122.073,137.984 121.506,137.984 121.439 C 137.984 121.140,137.665 121.403,136.604 122.578 M101.661 222.674 C 101.664 223.740,101.739 224.130,101.829 223.541 C 101.918 222.952,101.915 222.080,101.823 221.603 C 101.731 221.126,101.658 221.609,101.661 222.674 M101.656 238.372 C 101.656 239.331,101.732 239.724,101.824 239.244 C 101.916 238.765,101.916 237.980,101.824 237.500 C 101.732 237.020,101.656 237.413,101.656 238.372 M276.066 397.166 C 276.439 397.264,277.049 397.264,277.422 397.166 C 277.796 397.069,277.490 396.989,276.744 396.989 C 275.998 396.989,275.693 397.069,276.066 397.166 " stroke="none" fill="#2764a4" fill-rule="evenodd"></path><path id="path4" d="" stroke="none" fill="#3c7498" fill-rule="evenodd"></path></g></svg>